<svg width="36" height="36" viewBox="0 0 36 36" fill="none" xmlns="http://www.w3.org/2000/svg">
<path fill-rule="evenodd" clip-rule="evenodd" d="M4.87831 9.75089C3.70723 10.6938 3.70723 12.4452 4.87831 13.3881L11.3461 18.5957C12.9212 19.8639 15.2975 18.7702 15.2975 16.7771V14.3197H23.4422C24.2635 14.3837 25.0459 14.5333 25.5852 14.8597C25.8219 15.003 25.9837 15.1645 26.0998 15.3699C26.2172 15.5775 26.3654 15.9676 26.3654 16.6771V16.7029V16.7285V16.7541V16.7796V16.805V16.8303V16.8555V16.8807V16.9058V16.9308V16.9557V16.9805V17.0052V17.0299V17.0545V17.079V17.1034V17.1277V17.152V17.1762V17.2003V17.2243V17.2482V17.2721V17.2959V17.3196V17.3432V17.3667V17.3902V17.4136V17.4369V17.4601V17.4833V17.5064V17.5294V17.5523V17.5751V17.5979V17.6206V17.6432V17.6657V17.6882V17.7106V17.7329V17.7552V17.7773V17.7994V17.8214V17.8434V17.8652V17.887V17.9088V17.9304V17.952V17.9735V17.9949V18.0163V18.0376V18.0588V18.0799V18.101V18.122V18.143V18.1638V18.1846V18.2053V18.226V18.2466V18.2671V18.2875V18.3079V18.3282V18.3484V18.3686V18.3887V18.4087V18.4287V18.4486V18.4684V18.4882V18.5079V18.5275V18.5471V18.5666V18.586V18.6054V18.6247V18.6439V18.6631V18.6822V18.7012V18.7202V18.7391V18.758V18.7767V18.7955V18.8141V18.8327V18.8512V18.8697V18.8881V18.9065V18.9247V18.943V18.9611V18.9792V18.9973V19.0152V19.0331V19.051V19.0688V19.0865V19.1042V19.1218V19.1394V19.1569V19.1743V19.1917V19.209V19.2263V19.2435V19.2606V19.2777V19.2947V19.3117V19.3286V19.3455V19.3623V19.3791V19.3957V19.4124V19.429V19.4455V19.462V19.4784V19.4947V19.511V19.5273V19.5435V19.5596V19.5757V19.5918V19.6078V19.6237V19.6396V19.6554V19.6712V19.6869V19.7026V19.7182V19.7337V19.7493V19.7647V19.7801V19.7955V19.8108V19.8261V19.8413V19.8565V19.8716V19.8867V19.9017V19.9166V19.9316V19.9464V19.9613V19.976V19.9908V20.0054V20.0201V20.0347V20.0492V20.0637V20.0782V20.0926V20.1069V20.1212V20.1355V20.1497V20.1639V20.178V20.1921V20.2061V20.2201V20.2341V20.248V20.2619V20.2757V20.2895V20.3032V20.3169V20.3306V20.3442V20.3578V20.3713V20.3848V20.3982V20.4116V20.425V20.4383V20.4516V20.4648V20.478V20.4912V20.5043V20.5174V20.5305V20.5435V20.5564V20.5694V20.5823V20.5951V20.6079V20.6207V20.6335V20.6462V20.6588V20.6715V20.6841V20.6966V20.7091V20.7216V20.7341V20.7465V20.7589V20.7712V20.7836V20.7958V20.8081V20.8203V20.8325V20.8446V20.8567V20.8688V20.8808V20.8929V20.9048V20.9168V20.9287V20.9406V20.9525V20.9643V20.9761V20.9878V20.9996V21.0113V21.0229V21.0346V21.0462V21.0578V21.0693V21.0808V21.0923V21.1038V21.1152V21.1266V21.138V21.1494V21.1607V21.172V21.1833V21.1945V21.2057V21.2169V21.2281V21.2392V21.2504V21.2614V21.2725V21.2836V21.2946V21.3056V21.3165V21.3275V21.3384V21.3493V21.3601V21.371V21.3818V21.3926V21.4034V21.4142V21.4249V21.4356V21.4463V21.457V21.4676V21.4782V21.4888V21.4994V21.51V21.5205V21.5311V21.5416V21.5521V21.5625V21.573V21.5834V21.5938V21.6042V21.6146V21.6249V21.6353V21.6456V21.6559V21.6662V21.6765V21.6867V21.6969V21.7072V21.7174V21.7276V21.7377V21.7479V21.758V21.7682V21.7783V21.7884V21.7985V21.8085V21.8186V21.8286V21.8387V21.8487V21.8587V21.8687V21.8787V21.8886V21.8986V21.9085V21.9185V21.9284V21.9383V21.9482V21.9581V21.968V21.9778V21.9877V21.9975V22.0074V22.0172V22.027V22.0368V22.0466V22.0564V22.0662V22.076V22.0858V22.0955V22.1053V22.115V22.1248V22.1345V22.1443V22.154V22.1637V22.1734V22.1831V22.1928V22.2025V22.2122V22.2219V22.2316V22.2412V22.2509V22.2606V22.2702V22.2799V22.2896V22.2992V22.3089V22.3185V22.3282V22.3378V22.3475V22.3571V22.3668V22.3764V22.386V22.3957V22.4053V22.415V22.4246V22.4342V22.4439V22.4535V22.4632V22.4728V22.4825V22.4921V22.5018V22.5114V22.5211V22.5307V22.5404V22.55V22.5597V22.5694V22.579V22.5887V22.5984V22.6081V22.6177V22.6274V22.6371V22.6468V22.6565V22.6663V22.676V22.6857V22.6954V22.7052V22.7149V22.7246V22.7344V22.7442V22.7539V22.7637V22.7735V22.7833V22.7931V22.8029V22.8127V22.8226V22.8324V22.8423V22.8521V22.862V22.8719V22.8818V22.8917V22.9016V22.9115V22.9214V22.9314V22.9413V22.9513V22.9613V22.9713V22.9813V22.9913V23.0013V23.0114V23.0214V23.0315V23.0416V23.0517V23.0618V23.0719V23.0821V23.0922V23.1024V23.1126V23.1228V23.133V23.1433V23.1535V23.1638V23.1741V23.1844V23.1947V23.205V23.2154V23.2258V23.2362V23.2466V23.257V23.2675V23.2779V23.2884V23.2989V23.3095V23.32V23.3306V23.3412V23.3518V23.3624V23.373V23.3837V23.3944V23.4051V23.4159V23.4266V23.4374V23.4482V23.459V23.4699V23.4807V23.4916V23.5026V23.5135V23.5245V23.5355V23.5465V23.5575V23.5686V23.5797V23.5908V23.6019V23.6131V23.6243V23.6355V23.6468V23.658V23.6693V23.6807V23.692V23.7034V23.7148V23.7263V23.7377V23.7492C26.3654 25.2619 25.9691 25.7812 25.7667 25.9664C25.5295 26.1835 24.9482 26.4995 23.5481 26.4995H23.5273H23.5065H23.4856H23.4646H23.4436H23.4225H23.4013H23.3801H23.3589H23.3375H23.3161H23.2947H23.2732H23.2516H23.23H23.2083H23.1866H23.1648H23.1429H23.121H23.0991H23.077H23.055H23.0328H23.0107H22.9884H22.9661H22.9438H22.9214H22.8989H22.8764H22.8538H22.8312H22.8085H22.7858H22.763H22.7402H22.7173H22.6944H22.6714H22.6484H22.6253H22.6021H22.579H22.5557H22.5324H22.5091H22.4857H22.4623H22.4388H22.4153H22.3917H22.3681H22.3444H22.3207H22.2969H22.2731H22.2493H22.2254H22.2014H22.1774H22.1534H22.1293H22.1052H22.081H22.0568H22.0326H22.0083H21.9839H21.9595H21.9351H21.9106H21.8861H21.8616H21.837H21.8123H21.7877H21.7629H21.7382H21.7134H21.6886H21.6637H21.6388H21.6138H21.5888H21.5638H21.5387H21.5136H21.4885H21.4633H21.4381H21.4128H21.3875H21.3622H21.3368H21.3115H21.286H21.2606H21.2351H21.2095H21.184H21.1583H21.1327H21.107H21.0813H21.0556H21.0298H21.004H20.9782H20.9524H20.9265H20.9005H20.8746H20.8486H20.8226H20.7965H20.7705H20.7444H20.7182H20.6921H20.6659H20.6397H20.6134H20.5871H20.5608H20.5345H20.5082H20.4818H20.4554H20.429H20.4025H20.376H20.3495H20.323H20.2964H20.2698H20.2432H20.2166H20.19H20.1633H20.1366H20.1099H20.0831H20.0564H20.0296H20.0028H19.9759H19.9491H19.9222H19.8953H19.8684H19.8415H19.8146H19.7876H19.7606H19.7336H19.7066H19.6795H19.6525H19.6254H19.5983H19.5712H19.5441H19.5169H19.4898H19.4626H19.4354H19.4082H19.381H19.3537H19.3265H19.2992H19.272H19.2447H19.2174H19.1901H19.1627H19.1354H19.108H19.0807H19.0533H19.0259H18.9985H18.9711H18.9437H18.9163H18.8888H18.8614H18.8339H18.8064H18.779H18.7515H18.724H18.6965H18.669H18.6415H18.6139H18.5864H18.5589H18.5313H18.5038H18.4762H18.4487H18.4211H18.3935H18.366H18.3384H18.3108H18.2832H18.2556H18.2281H18.2005H18.1729H18.1453H18.1177H18.0901H18.0625H18.0349H18.0073H17.9796H17.952H17.9244H17.8968H17.8692H17.8416H17.814H17.7864H17.7588H17.7312H17.7036H17.676H17.6484H17.6209H17.5933H17.5657H17.5381H17.5105H17.483H17.4554H17.4279H17.4003H17.3728H17.3452H17.3177H17.2901H17.2626H17.2351H17.2076H17.1801H17.1526H17.1251H17.0977H17.0702H17.0427H17.0153H16.9878H16.9604H16.933H16.9056H16.8782H16.8508H16.8234H16.7961H16.7687H16.7414H16.714H16.6867H16.6594H16.6321H16.6049H16.5776H16.5503H16.5231H16.4959H16.4687H16.4415H16.4143H16.3872H16.36H16.3329H16.3058H16.2787H16.2516H16.2246H16.1975H16.1705H16.1435H16.1165H16.0895H16.0626H16.0357H16.0088H15.9819H15.955H15.9282H15.9013H15.8745H15.8477H15.821H15.7942H15.7675H15.7408H15.7141H15.6875H15.6609H15.6343H15.6077H15.5811H15.5546H15.5281H15.5016H15.4752H15.4487H15.4223H15.3959H15.3696H15.3433H15.317H15.2907H15.2644H15.2382H15.212H15.1859H15.1597H15.1336H15.1076H15.0815H15.0555H15.0295H15.0036H14.9777H14.9518H14.9259H14.9001H14.8743H14.8485H14.8228H14.7971H14.7714H14.7458H14.7202H14.6946H14.6691H14.6436H14.6181H14.5927H14.5673H14.5419H14.5166H14.4913H14.4661H14.4408H14.4157H14.3905H14.3654H14.3403H14.3153H14.2903H14.2654H14.2405H14.2156H14.1907H14.166H14.1412H14.1165H14.0918H14.0672H14.0426H14.018H13.9935H13.969H13.9446H13.9202H13.8959H13.8716H13.8473H13.8231H13.799H13.7748H13.7507H13.7267H13.7027H13.6788H13.6549H13.631H13.6072H13.5835H13.5597H13.5361H13.5124H13.4889H13.4653H13.4419H13.4184H13.3951H13.3717H13.3484H13.3252H13.302H13.2789H13.2558H13.2328H13.2098H13.1869H13.164H13.1412H13.1184H13.0957H13.073H13.0504H13.0278H13.0053H12.9828H12.9604H12.9381H12.9158H12.8935H12.8713H12.8492H12.8271H12.8051H12.7831H12.7612H12.7394H12.7176H12.6959H12.6742H12.6526H12.631H12.6095H12.588H12.5667H12.5453H12.5241H12.5029H12.4817H12.4606H12.4396H12.4186H12.3977H12.3769H12.3561H12.3354H12.3147H12.2941H12.2736H12.2531H12.2327H12.2124H12.1921H12.1719H12.1517H12.1316H12.1116H12.0917H12.0718H12.052H12.0322H12.0125H11.9929H11.9733H11.9538H11.9344H11.9151H11.8958H11.8766H11.8574H11.8383H11.8193H11.8004H11.7815H11.7627H11.744H11.7253H11.7068H11.6882H11.6698H11.6514H11.6331H11.6149H11.5967H11.5787H11.5606H11.5427H11.5248H11.5071H11.4893H11.4717H11.4541H11.4367H11.4192H11.4019H11.3846H11.3675H11.3504H11.3333H11.3164H11.2995H11.2827H11.266H11.2493H11.2328H11.2163H11.1999H11.1836H11.1673H11.1511H11.1351H11.119H11.1031H11.0873H11.0715C9.51557 26.4995 8.25422 27.7308 8.25422 29.2497C8.25422 30.7687 9.51557 32 11.0715 32H11.0873H11.1031H11.119H11.1351H11.1511H11.1673H11.1836H11.1999H11.2163H11.2328H11.2493H11.266H11.2827H11.2995H11.3164H11.3333H11.3504H11.3675H11.3846H11.4019H11.4192H11.4367H11.4541H11.4717H11.4893H11.5071H11.5248H11.5427H11.5606H11.5787H11.5967H11.6149H11.6331H11.6514H11.6698H11.6882H11.7068H11.7253H11.744H11.7627H11.7815H11.8004H11.8193H11.8383H11.8574H11.8766H11.8958H11.9151H11.9344H11.9538H11.9733H11.9929H12.0125H12.0322H12.052H12.0718H12.0917H12.1116H12.1316H12.1517H12.1719H12.1921H12.2124H12.2327H12.2531H12.2736H12.2941H12.3147H12.3354H12.3561H12.3769H12.3977H12.4186H12.4396H12.4606H12.4817H12.5029H12.5241H12.5453H12.5667H12.588H12.6095H12.631H12.6526H12.6742H12.6959H12.7176H12.7394H12.7612H12.7831H12.8051H12.8271H12.8492H12.8713H12.8935H12.9158H12.9381H12.9604H12.9828H13.0053H13.0278H13.0504H13.073H13.0957H13.1184H13.1412H13.164H13.1869H13.2098H13.2328H13.2558H13.2789H13.302H13.3252H13.3484H13.3717H13.3951H13.4184H13.4419H13.4653H13.4889H13.5124H13.5361H13.5597H13.5835H13.6072H13.631H13.6549H13.6788H13.7027H13.7267H13.7507H13.7748H13.799H13.8231H13.8473H13.8716H13.8959H13.9202H13.9446H13.969H13.9935H14.018H14.0426H14.0672H14.0918H14.1165H14.1412H14.166H14.1907H14.2156H14.2405H14.2654H14.2903H14.3153H14.3403H14.3654H14.3905H14.4157H14.4408H14.4661H14.4913H14.5166H14.5419H14.5673H14.5927H14.6181H14.6436H14.6691H14.6946H14.7202H14.7458H14.7714H14.7971H14.8228H14.8485H14.8743H14.9001H14.9259H14.9518H14.9777H15.0036H15.0295H15.0555H15.0815H15.1076H15.1336H15.1597H15.1859H15.212H15.2382H15.2644H15.2907H15.317H15.3433H15.3696H15.3959H15.4223H15.4487H15.4752H15.5016H15.5281H15.5546H15.5811H15.6077H15.6343H15.6609H15.6875H15.7141H15.7408H15.7675H15.7942H15.821H15.8477H15.8745H15.9013H15.9282H15.955H15.9819H16.0088H16.0357H16.0626H16.0895H16.1165H16.1435H16.1705H16.1975H16.2246H16.2516H16.2787H16.3058H16.3329H16.36H16.3872H16.4143H16.4415H16.4687H16.4959H16.5231H16.5503H16.5776H16.6049H16.6321H16.6594H16.6867H16.714H16.7414H16.7687H16.7961H16.8234H16.8508H16.8782H16.9056H16.933H16.9604H16.9878H17.0153H17.0427H17.0702H17.0977H17.1251H17.1526H17.1801H17.2076H17.2351H17.2626H17.2901H17.3177H17.3452H17.3728H17.4003H17.4279H17.4554H17.483H17.5105H17.5381H17.5657H17.5933H17.6209H17.6484H17.676H17.7036H17.7312H17.7588H17.7864H17.814H17.8416H17.8692H17.8968H17.9244H17.952H17.9796H18.0073H18.0349H18.0625H18.0901H18.1177H18.1453H18.1729H18.2005H18.2281H18.2556H18.2832H18.3108H18.3384H18.366H18.3935H18.4211H18.4487H18.4762H18.5038H18.5313H18.5589H18.5864H18.6139H18.6415H18.669H18.6965H18.724H18.7515H18.779H18.8064H18.8339H18.8614H18.8888H18.9163H18.9437H18.9711H18.9985H19.0259H19.0533H19.0807H19.108H19.1354H19.1627H19.1901H19.2174H19.2447H19.272H19.2992H19.3265H19.3537H19.381H19.4082H19.4354H19.4626H19.4898H19.5169H19.5441H19.5712H19.5983H19.6254H19.6525H19.6795H19.7066H19.7336H19.7606H19.7876H19.8146H19.8415H19.8684H19.8953H19.9222H19.9491H19.9759H20.0028H20.0296H20.0564H20.0831H20.1099H20.1366H20.1633H20.19H20.2166H20.2432H20.2698H20.2964H20.323H20.3495H20.376H20.4025H20.429H20.4554H20.4818H20.5082H20.5345H20.5608H20.5871H20.6134H20.6397H20.6659H20.6921H20.7182H20.7444H20.7705H20.7965H20.8226H20.8486H20.8746H20.9005H20.9265H20.9524H20.9782H21.004H21.0298H21.0556H21.0813H21.107H21.1327H21.1583H21.184H21.2095H21.2351H21.2606H21.286H21.3115H21.3368H21.3622H21.3875H21.4128H21.4381H21.4633H21.4885H21.5136H21.5387H21.5638H21.5888H21.6138H21.6388H21.6637H21.6886H21.7134H21.7382H21.7629H21.7877H21.8123H21.837H21.8616H21.8861H21.9106H21.9351H21.9595H21.9839H22.0083H22.0326H22.0568H22.081H22.1052H22.1293H22.1534H22.1774H22.2014H22.2254H22.2493H22.2731H22.2969H22.3207H22.3444H22.3681H22.3917H22.4153H22.4388H22.4623H22.4857H22.5091H22.5324H22.5557H22.579H22.6021H22.6253H22.6484H22.6714H22.6944H22.7173H22.7402H22.763H22.7858H22.8085H22.8312H22.8538H22.8764H22.8989H22.9214H22.9438H22.9661H22.9884H23.0107H23.0328H23.055H23.077H23.0991H23.121H23.1429H23.1648H23.1866H23.2083H23.23H23.2516H23.2732H23.2947H23.3161H23.3375H23.3589H23.3801H23.4013H23.4225H23.4436H23.4646H23.4856H23.5065H23.5273H23.5481C25.6898 32 27.9258 31.5302 29.6204 29.9792C31.3499 28.3965 32 26.1654 32 23.7492V23.7377V23.7263V23.7148V23.7034V23.692V23.6807V23.6693V23.658V23.6468V23.6355V23.6243V23.6131V23.6019V23.5908V23.5797V23.5686V23.5575V23.5465V23.5355V23.5245V23.5135V23.5026V23.4916V23.4807V23.4699V23.459V23.4482V23.4374V23.4266V23.4159V23.4051V23.3944V23.3837V23.373V23.3624V23.3518V23.3412V23.3306V23.32V23.3095V23.2989V23.2884V23.2779V23.2675V23.257V23.2466V23.2362V23.2258V23.2154V23.205V23.1947V23.1844V23.1741V23.1638V23.1535V23.1433V23.133V23.1228V23.1126V23.1024V23.0922V23.0821V23.0719V23.0618V23.0517V23.0416V23.0315V23.0214V23.0114V23.0013V22.9913V22.9813V22.9713V22.9613V22.9513V22.9413V22.9314V22.9214V22.9115V22.9016V22.8917V22.8818V22.8719V22.862V22.8521V22.8423V22.8324V22.8226V22.8127V22.8029V22.7931V22.7833V22.7735V22.7637V22.7539V22.7442V22.7344V22.7246V22.7149V22.7052V22.6954V22.6857V22.676V22.6663V22.6565V22.6468V22.6371V22.6274V22.6177V22.6081V22.5984V22.5887V22.579V22.5694V22.5597V22.55V22.5404V22.5307V22.5211V22.5114V22.5018V22.4921V22.4825V22.4728V22.4632V22.4535V22.4439V22.4342V22.4246V22.415V22.4053V22.3957V22.386V22.3764V22.3668V22.3571V22.3475V22.3378V22.3282V22.3185V22.3089V22.2992V22.2896V22.2799V22.2702V22.2606V22.2509V22.2412V22.2316V22.2219V22.2122V22.2025V22.1928V22.1831V22.1734V22.1637V22.154V22.1443V22.1345V22.1248V22.115V22.1053V22.0955V22.0858V22.076V22.0662V22.0564V22.0466V22.0368V22.027V22.0172V22.0074V21.9975V21.9877V21.9778V21.968V21.9581V21.9482V21.9383V21.9284V21.9185V21.9085V21.8986V21.8886V21.8787V21.8687V21.8587V21.8487V21.8387V21.8286V21.8186V21.8085V21.7985V21.7884V21.7783V21.7682V21.758V21.7479V21.7377V21.7276V21.7174V21.7072V21.6969V21.6867V21.6765V21.6662V21.6559V21.6456V21.6353V21.6249V21.6146V21.6042V21.5938V21.5834V21.573V21.5625V21.5521V21.5416V21.5311V21.5205V21.51V21.4994V21.4888V21.4782V21.4676V21.457V21.4463V21.4356V21.4249V21.4142V21.4034V21.3926V21.3818V21.371V21.3601V21.3493V21.3384V21.3275V21.3165V21.3056V21.2946V21.2836V21.2725V21.2614V21.2504V21.2392V21.2281V21.2169V21.2057V21.1945V21.1833V21.172V21.1607V21.1494V21.138V21.1266V21.1152V21.1038V21.0923V21.0808V21.0693V21.0578V21.0462V21.0346V21.0229V21.0113V20.9996V20.9878V20.9761V20.9643V20.9525V20.9406V20.9287V20.9168V20.9048V20.8929V20.8808V20.8688V20.8567V20.8446V20.8325V20.8203V20.8081V20.7958V20.7836V20.7712V20.7589V20.7465V20.7341V20.7216V20.7091V20.6966V20.6841V20.6715V20.6588V20.6462V20.6335V20.6207V20.6079V20.5951V20.5823V20.5694V20.5564V20.5435V20.5305V20.5174V20.5043V20.4912V20.478V20.4648V20.4516V20.4383V20.425V20.4116V20.3982V20.3848V20.3713V20.3578V20.3442V20.3306V20.3169V20.3032V20.2895V20.2757V20.2619V20.248V20.2341V20.2201V20.2061V20.1921V20.178V20.1639V20.1497V20.1355V20.1212V20.1069V20.0926V20.0782V20.0637V20.0492V20.0347V20.0201V20.0054V19.9908V19.976V19.9613V19.9464V19.9316V19.9166V19.9017V19.8867V19.8716V19.8565V19.8413V19.8261V19.8108V19.7955V19.7801V19.7647V19.7493V19.7337V19.7182V19.7026V19.6869V19.6712V19.6554V19.6396V19.6237V19.6078V19.5918V19.5757V19.5596V19.5435V19.5273V19.511V19.4947V19.4784V19.462V19.4455V19.429V19.4124V19.3957V19.3791V19.3623V19.3455V19.3286V19.3117V19.2947V19.2777V19.2606V19.2435V19.2263V19.209V19.1917V19.1743V19.1569V19.1394V19.1218V19.1042V19.0865V19.0688V19.051V19.0331V19.0152V18.9973V18.9792V18.9611V18.943V18.9247V18.9065V18.8881V18.8697V18.8512V18.8327V18.8141V18.7955V18.7767V18.758V18.7391V18.7202V18.7012V18.6822V18.6631V18.6439V18.6247V18.6054V18.586V18.5666V18.5471V18.5275V18.5079V18.4882V18.4684V18.4486V18.4287V18.4087V18.3887V18.3686V18.3484V18.3282V18.3079V18.2875V18.2671V18.2466V18.226V18.2053V18.1846V18.1638V18.143V18.122V18.101V18.0799V18.0588V18.0376V18.0163V17.9949V17.9735V17.952V17.9304V17.9088V17.887V17.8652V17.8434V17.8214V17.7994V17.7773V17.7552V17.7329V17.7106V17.6882V17.6657V17.6432V17.6206V17.5979V17.5751V17.5523V17.5294V17.5064V17.4833V17.4601V17.4369V17.4136V17.3902V17.3667V17.3432V17.3196V17.2959V17.2721V17.2482V17.2243V17.2003V17.1762V17.152V17.1277V17.1034V17.079V17.0545V17.0299V17.0052V16.9805V16.9557V16.9308V16.9058V16.8807V16.8555V16.8303V16.805V16.7796V16.7541V16.7285V16.7029V16.6771C32 13.5404 30.57 11.4048 28.5543 10.1848C26.7665 9.10278 24.7713 8.89751 23.7488 8.82621L23.6486 8.81922H23.5481H15.2975V6.36186C15.2975 4.36878 12.9212 3.27509 11.3461 4.54325L4.87831 9.75089Z" fill="white"/>
</svg>
