<?xml version="1.0" encoding="UTF-8" standalone="no"?>
<svg width="36" height="36" viewBox="0 0 36 36" fill="none" xmlns="http://www.w3.org/2000/svg">
<path fill="white" d="M 18,5 C 10.006685,5 3.5,11.506685 3.5,19.5 3.5,27.493315 10.006685,34 18,34 25.993315,34 32.5,27.493315 32.5,19.5 32.5,11.506685 25.993315,5 18,5 Z m -1.25,2.8261719 v 5.6953121 c -1.302625,0.04298 -2.553386,0.151332 -3.734375,0.316407 0.312513,-1.175626 0.710758,-2.236674 1.177734,-3.126954 C 14.965462,9.2389438 15.857626,8.2865501 16.75,7.8261719 Z m 2.5,0 c 0.892374,0.4603782 1.784538,1.4127719 2.556641,2.8847651 0.466976,0.89028 0.865221,1.951328 1.177734,3.126954 C 21.803386,13.672816 20.552625,13.564465 19.25,13.521484 Z m -6.910156,1.0859375 c -0.124324,0.2082774 -0.246572,0.4198925 -0.361328,0.6386718 -0.725843,1.3837998 -1.289675,3.0051708 -1.66211,4.7890628 -0.7502933,0.181789 -1.4554897,0.391288 -2.1074216,0.625 -0.5641311,0.202235 -1.0872109,0.423544 -1.5703125,0.666015 0.9830348,-2.899856 3.0385198,-5.296206 5.7011721,-6.7187496 z m 11.320312,0 c 2.662652,1.4225436 4.718137,3.8188936 5.701172,6.7187496 -0.483101,-0.242471 -1.006182,-0.46378 -1.570312,-0.666015 -0.651932,-0.233712 -1.357128,-0.443211 -2.107422,-0.625 C 25.311159,12.555952 24.747327,10.934581 24.021484,9.5507812 23.906728,9.3320019 23.78448,9.1203868 23.660156,8.9121094 Z M 16.75,16.027344 v 6.945312 C 15.234833,22.917793 13.800693,22.770245 12.5,22.546875 12.372035,21.573673 12.300781,20.553059 12.300781,19.5 c 0,-1.053059 0.07125,-2.073673 0.199219,-3.046875 1.300693,-0.22337 2.734833,-0.370918 4.25,-0.425781 z m 2.5,0 c 1.515167,0.05486 2.949307,0.202411 4.25,0.425781 0.127965,0.973202 0.199219,1.993816 0.199219,3.046875 0,1.053059 -0.07125,2.073673 -0.199219,3.046875 -1.300693,0.22337 -2.734833,0.370918 -4.25,0.425781 z M 9.9160156,17.039062 C 9.8418088,17.839563 9.8007812,18.660493 9.8007812,19.5 c 0,0.839507 0.041028,1.660437 0.1152344,2.460938 C 9.6140952,21.871713 9.3255352,21.779437 9.0527344,21.681641 7.9489101,21.28593 7.0987467,20.817584 6.5996094,20.394531 6.100472,19.971479 6,19.684731 6,19.5 c 0,-0.184731 0.100472,-0.471479 0.5996094,-0.894531 0.4991373,-0.423053 1.3493007,-0.891399 2.453125,-1.28711 0.2728008,-0.0978 0.5613608,-0.190072 0.8632812,-0.279297 z m 16.1679684,0 c 0.301921,0.08923 0.590481,0.181501 0.863282,0.279297 1.103824,0.395711 1.953987,0.864057 2.453125,1.28711 C 29.899528,19.028521 30,19.315269 30,19.5 c 0,0.184731 -0.100472,0.471479 -0.599609,0.894531 -0.499138,0.423053 -1.349301,0.891399 -2.453125,1.28711 -0.272801,0.0978 -0.561361,0.190072 -0.863282,0.279297 0.07421,-0.800501 0.115235,-1.621431 0.115235,-2.460938 0,-0.839507 -0.04103,-1.660437 -0.115235,-2.460938 z M 6.6386719,23.369141 c 0.4831016,0.242471 1.0061814,0.46378 1.5703125,0.666015 0.6519319,0.233712 1.3571285,0.443211 2.1074216,0.625 0.372435,1.783892 0.936267,3.405263 1.66211,4.789063 0.114756,0.218779 0.237004,0.430394 0.361328,0.638672 -2.6626525,-1.422544 -4.7181373,-3.818894 -5.7011721,-6.71875 z m 22.7226561,0 c -0.983035,2.899856 -3.03852,5.296206 -5.701172,6.71875 0.124324,-0.208278 0.246572,-0.419893 0.361328,-0.638672 0.725843,-1.3838 1.289675,-3.005171 1.66211,-4.789063 0.750294,-0.181789 1.45549,-0.391288 2.107422,-0.625 0.56413,-0.202235 1.087211,-0.423544 1.570312,-0.666015 z m -16.345703,1.792968 c 1.180989,0.165075 2.43175,0.273426 3.734375,0.316407 v 5.695312 C 15.857626,30.71345 14.965462,29.761056 14.193359,28.289062 13.726383,27.398784 13.328138,26.337735 13.015625,25.162109 Z m 9.96875,0 c -0.312513,1.175626 -0.710758,2.236676 -1.177734,3.126953 -0.772103,1.471994 -1.664267,2.424388 -2.556641,2.884766 v -5.695312 c 1.302625,-0.04298 2.553386,-0.151332 3.734375,-0.316407 z" />
</svg>
