<svg width="36" height="36" viewBox="0 0 36 36" fill="none" xmlns="http://www.w3.org/2000/svg">
<path fill-rule="evenodd" clip-rule="evenodd" d="M14.5 3C8.14873 3 3 8.14873 3 14.5V22.5C3 28.8513 8.14873 34 14.5 34H20.5C21.3284 34 22 33.3284 22 32.5C22 31.6716 21.3284 31 20.5 31H14.5C9.80558 31 6 27.1944 6 22.5V14.5C6 9.80558 9.80558 6 14.5 6H20.5C21.3284 6 22 5.32843 22 4.5C22 3.67157 21.3284 3 20.5 3H14.5ZM33.1135 17.7051L23.9687 10.7262C23.3106 10.2239 22.3621 10.6932 22.3621 11.5211V15.5H16.5C15.3954 15.5 14.5 16.3955 14.5 17.5V19.5C14.5 20.6046 15.3954 21.5 16.5 21.5H22.3621V25.4789C22.3621 26.3068 23.3106 26.7761 23.9687 26.2739L33.1135 19.295C33.6379 18.8947 33.6379 18.1053 33.1135 17.7051Z" fill="white"/>
</svg>
