<svg width="32" height="30" viewBox="0 0 32 30" fill="none" xmlns="http://www.w3.org/2000/svg">
<path d="M14.2089 1.44007C14.9443 -0.0400412 17.0557 -0.0400416 17.7911 1.44007L20.9939 7.88629C21.2851 8.47242 21.8447 8.87898 22.4921 8.97482L29.6126 10.0289C31.2475 10.2709 31.9 12.279 30.7196 13.4358L25.5786 18.4738C25.1111 18.9319 24.8974 19.5897 25.0063 20.2351L26.2042 27.3328C26.4792 28.9625 24.771 30.2035 23.3061 29.4384L16.9259 26.1058C16.3458 25.8028 15.6542 25.8028 15.074 26.1058L8.6939 29.4384C7.22896 30.2035 5.5208 28.9625 5.79583 27.3328L6.99369 20.2351C7.1026 19.5897 6.88886 18.9319 6.42141 18.4738L1.28042 13.4358C0.100001 12.279 0.752462 10.2709 2.38738 10.0289L9.50784 8.97482C10.1553 8.87898 10.7148 8.47242 11.0061 7.88629L14.2089 1.44007Z" fill="white"/>
</svg>
