<svg width="32" height="30" viewBox="0 0 32 30" fill="none" xmlns="http://www.w3.org/2000/svg">
<path d="M 15.974609,2.3808594 C 14.797586,4.677378 13.73297,7.0379879 12.486328,9.2949219 11.665603,10.555992 10.139669,11.01899 8.7126704,11.114416 c -2.0075933,0.299288 -4.0163397,0.591949 -6.0232173,0.89535 1.8265345,1.847271 3.7593634,3.597458 5.53125,5.49414 0.9416036,1.171416 0.9137143,2.762665 0.5627616,4.149068 -0.3351019,2.001299 -0.6826104,4.000969 -1.0100272,6.003276 2.3229855,-1.165681 4.5848205,-2.468135 6.9394535,-3.5625 1.402628,-0.533877 2.905281,-0.01191 4.113791,0.74734 1.800455,0.937344 3.596993,1.882944 5.39988,2.81516 -0.389312,-2.568755 -0.93157,-5.120478 -1.246093,-7.697266 -0.07346,-1.499182 0.886617,-2.767696 1.98274,-3.682194 1.448258,-1.423171 2.903239,-2.83981 4.347338,-4.267024 C 26.75159,11.592597 24.164821,11.309792 21.621094,10.820312 20.163247,10.434999 19.245956,9.1228177 18.713718,7.7922137 17.808063,5.9746938 16.910971,4.1525246 16,2.3378906 Z M 14.2089,1.44007 c 0.7354,-1.4801112 2.8468,-1.4801116 3.5822,0 l 3.2028,6.44622 c 0.2912,0.58613 0.8508,0.99269 1.4982,1.08853 l 7.1205,1.05408 c 1.6349,0.242 2.2874,2.2501 1.107,3.4069 l -5.141,5.038 c -0.4675,0.4581 -0.6812,1.1159 -0.5723,1.7613 l 1.1979,7.0977 c 0.275,1.6297 -1.4332,2.8707 -2.8981,2.1056 l -6.3802,-3.3326 c -0.5801,-0.303 -1.2717,-0.303 -1.8519,0 L 8.6939,29.4384 C 7.22896,30.2035 5.5208,28.9625 5.79583,27.3328 L 6.99369,20.2351 C 7.1026,19.5897 6.88886,18.9319 6.42141,18.4738 L 1.28042,13.4358 C 0.100001,12.279 0.752462,10.2709 2.38738,10.0289 L 9.50784,8.97482 C 10.1553,8.87898 10.7148,8.47242 11.0061,7.88629 Z" fill="white"/>
</svg>
