<svg width="36" height="36" viewBox="0 0 36 36" fill="none" xmlns="http://www.w3.org/2000/svg">
<path fill="white" d="m 4.005859,7.5005956 c 0.01813,-0.00134 0.03632,0 0.05469,0 h 1.878907 c 0.587606,0 1.060547,0.6957028 1.060547,1.560079 v 0.3792465 c 0,0.8643759 -0.472941,1.5600799 -1.060547,1.5600799 H 4.060547 C 3.472941,11.000001 3,10.304297 3,9.4399212 V 9.0606747 C 3,8.2233106 3.443891,7.5422297 4.005859,7.5005956 Z M 4.060547,13.000001 H 5.939453 C 6.527059,13.000001 7,13.695824 7,14.560345 v 0.379311 c 0,0.864522 -0.472941,1.560345 -1.060547,1.560345 H 4.060547 C 3.472941,16.500001 3,15.804178 3,14.939656 v -0.379311 c 0,-0.864524 0.472941,-1.560344 1.060547,-1.560344 z m -0.05469,5.500579 c 0.01813,-0.0013 0.03632,0 0.05469,0 h 1.878907 c 0.587603,0 1.060544,0.695705 1.060544,1.560085 v 0.379247 c 0,0.864379 -0.472941,1.560084 -1.060547,1.560084 H 4.060545 c -0.587606,0 -1.060547,-0.695705 -1.060547,-1.560084 v -0.379247 c 0,-0.837368 0.443891,-1.518451 1.005859,-1.560085 z M 4.060547,24 H 5.939453 C 6.527059,24 7,24.695252 7,25.559065 v 0.38187 C 7,26.804748 6.527059,27.5 5.939453,27.5 H 4.060547 C 3.472941,27.5 3,26.804748 3,25.940935 v -0.38187 C 3,24.695252 3.472941,24 4.060547,24 Z M 7.0000005,4.0000005 c -3.324,0 -6,2.676 -6,5.9999995 v 15 c 0,3.324001 2.676,6.000001 6,6.000001 H 29.000001 c 3.324,0 6,-2.676 6,-6.000001 V 10 c 0,-3.3240005 -2.676,-5.9999995 -6,-5.9999995 z M 30.00586,7.5005956 c 0.01813,-0.00134 0.03632,0 0.05469,0 h 1.878907 c 0.587606,0 1.060547,0.6957028 1.060547,1.560079 v 0.3792465 c 0,0.8643759 -0.472941,1.5600799 -1.060547,1.5600799 h -1.878909 c -0.587606,0 -1.060547,-0.695704 -1.060547,-1.5600798 V 9.0606747 c 0,-0.8373641 0.443891,-1.518445 1.005859,-1.5600791 z M 15.037111,12.455078 c 0.137499,-0.0024 0.280738,0.03238 0.414063,0.109375 l 7.349609,4.242187 c 0.5333,0.3079 0.5333,1.078819 0,1.386719 L 15.451174,22.4375 c -0.5333,0.308 -1.201172,-0.07746 -1.201172,-0.69336 v -8.488281 c 0,-0.461925 0.374614,-0.793595 0.787109,-0.800781 z m 15.023437,0.544923 h 1.878906 c 0.587606,0 1.060547,0.695823 1.060547,1.560344 v 0.379311 c 0,0.864522 -0.472941,1.560345 -1.060547,1.560345 h -1.878906 c -0.587606,0 -1.060547,-0.695823 -1.060547,-1.560345 v -0.379311 c 0,-0.864524 0.472941,-1.560344 1.060547,-1.560344 z m -0.05469,5.500579 c 0.01813,-0.0013 0.03632,0 0.05469,0 h 1.878907 c 0.587603,0 1.060544,0.695705 1.060544,1.560085 v 0.379247 c 0,0.864379 -0.472941,1.560084 -1.060547,1.560084 h -1.878906 c -0.587606,0 -1.060547,-0.695705 -1.060547,-1.560084 v -0.379247 c 0,-0.837368 0.443891,-1.518451 1.005859,-1.560085 z M 30.060548,24 h 1.878906 c 0.587606,0 1.060547,0.695252 1.060547,1.559065 v 0.38187 c 0,0.863813 -0.472941,1.559065 -1.060547,1.559065 h -1.878906 c -0.587606,0 -1.060547,-0.695252 -1.060547,-1.559065 v -0.38187 C 29.000001,24.695252 29.472942,24 30.060548,24 Z" />
</svg>
