<svg width="36" height="36" viewBox="0 0 36 36" fill="none" xmlns="http://www.w3.org/2000/svg">
<path fill-rule="evenodd" clip-rule="evenodd" d="M2.50015 11.5C2.5 11.6939 2.5 11.8938 2.5 12.1V23.9C2.5 27.2603 2.5 28.9405 3.15396 30.2239C3.7292 31.3529 4.64708 32.2708 5.77606 32.846C7.05953 33.5 8.73969 33.5 12.1 33.5H23.9C27.2603 33.5 28.9405 33.5 30.2239 32.846C31.3529 32.2708 32.2708 31.3529 32.846 30.2239C33.5 28.9405 33.5 27.2603 33.5 23.9V12.1C33.5 11.8938 33.5 11.6939 33.4998 11.5H2.50015ZM2.55757 8.5H33.4424C33.3706 7.32336 33.2091 6.48858 32.846 5.77606C32.2708 4.64708 31.3529 3.7292 30.2239 3.15396C28.9405 2.5 27.2603 2.5 23.9 2.5H12.1C8.73969 2.5 7.05953 2.5 5.77606 3.15396C4.64708 3.7292 3.7292 4.64708 3.15396 5.77606C2.79091 6.48858 2.62941 7.32336 2.55757 8.5ZM7 19.5C7 18.6716 7.67157 18 8.5 18H27.5C28.3284 18 29 18.6716 29 19.5C29 20.3284 28.3284 21 27.5 21H8.5C7.67157 21 7 20.3284 7 19.5ZM8.5 23.5C7.67157 23.5 7 24.1716 7 25C7 25.8284 7.67157 26.5 8.5 26.5H19.5C20.3284 26.5 21 25.8284 21 25C21 24.1716 20.3284 23.5 19.5 23.5H8.5Z" fill="white"/>
</svg>
