<svg width="36" height="36" viewBox="0 0 36 36" fill="none" xmlns="http://www.w3.org/2000/svg">
<path d="M 15.830078 0.97460938 C 7.6366905 0.9746093 0.93164061 7.6796591 0.93164062 15.873047 C 0.93163993 24.066435 7.63669 30.771484 15.830078 30.771484 C 18.493309 30.771485 20.996442 30.059955 23.166016 28.822266 L 28.257812 33.914062 A 4 4 0 0 0 33.914062 33.914062 A 4 4 0 0 0 33.914062 28.257812 L 28.810547 23.154297 C 30.028967 20.997385 30.728516 18.513856 30.728516 15.873047 C 30.728516 7.6796586 24.023466 0.97460869 15.830078 0.97460938 z M 15.830078 6.8867188 C 20.82822 6.8867183 24.816406 10.874905 24.816406 15.873047 C 24.816407 20.871189 20.82822 24.859375 15.830078 24.859375 C 10.831936 24.859375 6.8437496 20.871189 6.84375 15.873047 C 6.84375 10.874906 10.831937 6.8867187 15.830078 6.8867188 z " fill="white"/>
</svg>
