<svg width="36" height="36" viewBox="0 0 36 36" fill="none" xmlns="http://www.w3.org/2000/svg">
<path fill-rule="evenodd" clip-rule="evenodd" d="M32.8725 19.9797C33.5715 18.7524 33.5715 17.2476 32.8725 16.0203L27.1769 6.02034C26.4655 4.77128 25.1386 4 23.7011 4L12.2989 4.00002C10.8615 4.00003 9.53458 4.77131 8.82317 6.02036L3.12757 16.0203C2.42859 17.2476 2.42859 18.7524 3.12757 19.9797L8.82317 29.9797C9.53458 31.2287 10.8615 32 12.2989 32H23.7011C25.1386 32 26.4655 31.2287 27.1769 29.9797L32.8725 19.9797ZM23.0001 18C23.0001 20.7614 20.7615 23 18.0001 23C15.2386 23 13.0001 20.7614 13.0001 18C13.0001 15.2386 15.2386 13 18.0001 13C20.7615 13 23.0001 15.2386 23.0001 18Z" fill="white"/>
</svg>
