<svg width="16" height="16" viewBox="0 0 16 16" fill="none" xmlns="http://www.w3.org/2000/svg">
<path d="M7.20399 1.97335C7.53084 1.31552 8.46924 1.31552 8.79608 1.97335L10.2196 4.83834C10.349 5.09884 10.5977 5.27953 10.8854 5.32213L14.0501 5.79061C14.7767 5.89817 15.0667 6.79065 14.5421 7.30478L12.2572 9.54392C12.0494 9.74751 11.9544 10.0399 12.0028 10.3267L12.5352 13.4812C12.6575 14.2055 11.8983 14.7571 11.2472 14.417L8.41157 12.9359C8.15374 12.8012 7.84633 12.8012 7.5885 12.9359L4.75289 14.417C4.1018 14.7571 3.34262 14.2055 3.46486 13.4812L3.99723 10.3267C4.04564 10.0399 3.95065 9.74751 3.74289 9.54392L1.45801 7.30478C0.933375 6.79065 1.22336 5.89817 1.94999 5.79061L5.11463 5.32213C5.40238 5.27953 5.65108 5.09884 5.78051 4.83834L7.20399 1.97335Z" fill="white"/>
</svg>
