<svg width="16" height="16" viewBox="0 0 16 16" fill="none" xmlns="http://www.w3.org/2000/svg">
<path fill="white" d="m 4.9550781,5.6289062 a 0.750075,0.750075 0 0 0 -0.375,0.6484375 V 8.5 10.722656 a 0.750075,0.750075 0 0 0 1.125,0.648438 L 7.6289062,10.259766 9.5546875,9.150391 a 0.750075,0.750075 0 0 0 0,-1.3007816 L 7.6289062,6.7402344 5.7050781,5.6289062 a 0.750075,0.750075 0 0 0 -0.75,0 z M 3.0192312,4.0000005 H 10.98077 C 11.545424,4.0000005 12,4.4545774 12,5.0192312 V 11.98077 C 12,12.545424 11.545424,13 10.98077,13 H 3.0192312 C 2.4545774,13 2.0000005,12.545424 2.0000005,11.98077 V 5.0192312 c 0,-0.5646538 0.4545769,-1.0192307 1.0192307,-1.0192307 z M 5.0195312,2 C 4.4607773,2 4.0113161,2.4455127 4.0019531,3.0019531 4.0078286,3.0018543 4.0136313,3 4.0195312,3 H 11.980469 C 12.545123,3 13,3.4548774 13,4.0195312 v 6.9609378 c 0,0.0059 -0.0019,0.0117 -0.002,0.01758 C 13.554487,10.988684 14,10.539223 14,9.980469 V 3.0195312 C 14,2.4548774 13.545123,2 12.980469,2 Z" />
</svg>
