<svg width="36" height="36" viewBox="0 0 36 36" fill="none" xmlns="http://www.w3.org/2000/svg">
<path fill-rule="evenodd" clip-rule="evenodd" d="M11.9393 0.93934C12.5251 0.353553 13.4749 0.353553 14.0607 0.93934L18 4.87868L21.9393 0.93934C22.5251 0.353553 23.4749 0.353553 24.0607 0.93934C24.6464 1.52513 24.6464 2.47487 24.0607 3.06066L22.1213 5H29C32.3137 5 35 7.68629 35 11V22C35 25.3137 32.3137 28 29 28H7C3.68629 28 1 25.3137 1 22V11C1 7.68629 3.68629 5 7 5H13.8787L11.9393 3.06066C11.3536 2.47487 11.3536 1.52513 11.9393 0.93934ZM10.5 32C10.5 31.1716 11.1716 30.5 12 30.5H24C24.8284 30.5 25.5 31.1716 25.5 32C25.5 32.8284 24.8284 33.5 24 33.5H12C11.1716 33.5 10.5 32.8284 10.5 32Z" fill="white"/>
</svg>
