<svg width="36" height="36" viewBox="0 0 36 36" fill="none" xmlns="http://www.w3.org/2000/svg">
<path fill="white" d="m 14.486328,27.740234 a 2,2 0 0 0 -2,2 2,2 0 0 0 2,2 h 11.359375 a 2,2 0 0 0 2,-2 2,2 0 0 0 -2,-2 z M 14.908203,5.7109375 a 2,2 0 0 0 -2,2 V 22.089844 a 2,2 0 0 0 2,2 h 14.390625 a 2,2 0 0 0 0.517578,-0.06836 2,2 0 0 0 1.482422,-1.93164 V 7.7109375 a 2,2 0 0 0 -2,-2 z m 2,4 H 27.298828 V 20.089844 H 16.908203 Z M 8.8550916,30.137026 a 2.5,2.5 0 0 1 -2.5,2.5 2.5,2.5 0 0 1 -2.5,-2.5 2.5,2.5 0 0 1 2.5,-2.5 2.5,2.5 0 0 1 2.5,2.5 z m 0,-7.648993 a 2.5,2.5 0 0 1 -2.5,2.5 2.5,2.5 0 0 1 -2.5,-2.5 2.5,2.5 0 0 1 2.5,-2.5 2.5,2.5 0 0 1 2.5,2.5 z m 0,-7.64899 a 2.5,2.5 0 0 1 -2.5,2.5 2.5,2.5 0 0 1 -2.5,-2.5 2.5,2.5 0 0 1 2.5,-2.5 2.5,2.5 0 0 1 2.5,2.5 z m 0,-7.6489914 a 2.5,2.5 0 0 1 -2.5,2.5 2.5,2.5 0 0 1 -2.5,-2.5 2.5,2.5 0 0 1 2.5,-2.5 2.5,2.5 0 0 1 2.5,2.5 z" />
</svg>
